<mxfile host="app.diagrams.net" modified="2022-10-17T18:02:04.855Z" agent="5.0 (Windows NT 10.0; Win64; x64) AppleWebKit/537.36 (KHTML, like Gecko) Chrome/104.0.0.0 Safari/537.36" etag="Yg7G7MZ6A7UKVmIgp8nF" version="20.4.1" type="github">
  <diagram name="Page-1" id="58cdce13-f638-feb5-8d6f-7d28b1aa9fa0">
    <mxGraphModel dx="1038" dy="579" grid="1" gridSize="10" guides="1" tooltips="1" connect="1" arrows="1" fold="1" page="1" pageScale="1" pageWidth="1100" pageHeight="850" background="none" math="0" shadow="0">
      <root>
        <mxCell id="0" />
        <mxCell id="1" parent="0" />
        <mxCell id="8N6I14WKacHsOnJNkDoR-93" style="edgeStyle=orthogonalEdgeStyle;rounded=0;orthogonalLoop=1;jettySize=auto;html=1;exitX=0;exitY=0.5;exitDx=0;exitDy=0;entryX=0;entryY=0.25;entryDx=0;entryDy=0;" parent="1" source="382b91b5511bd0f7-1" target="382b91b5511bd0f7-6" edge="1">
          <mxGeometry relative="1" as="geometry" />
        </mxCell>
        <mxCell id="382b91b5511bd0f7-1" value="" style="ellipse;html=1;shape=startState;fillColor=#000000;strokeColor=#ff0000;rounded=1;shadow=0;comic=0;labelBackgroundColor=none;fontFamily=Verdana;fontSize=12;fontColor=#000000;align=center;direction=west;" parent="1" vertex="1">
          <mxGeometry x="40" y="100" width="30" height="30" as="geometry" />
        </mxCell>
        <mxCell id="8N6I14WKacHsOnJNkDoR-80" value="Operar" style="edgeStyle=orthogonalEdgeStyle;rounded=0;orthogonalLoop=1;jettySize=auto;html=1;exitX=1;exitY=0.5;exitDx=0;exitDy=0;" parent="1" source="382b91b5511bd0f7-6" target="382b91b5511bd0f7-7" edge="1">
          <mxGeometry relative="1" as="geometry">
            <mxPoint x="270" y="60" as="targetPoint" />
          </mxGeometry>
        </mxCell>
        <mxCell id="-9OwRvuo03_8MSpaAuux-5" style="edgeStyle=orthogonalEdgeStyle;rounded=0;orthogonalLoop=1;jettySize=auto;html=1;exitX=0.5;exitY=0;exitDx=0;exitDy=0;entryX=0.5;entryY=1;entryDx=0;entryDy=0;" edge="1" parent="1" source="382b91b5511bd0f7-6" target="-9OwRvuo03_8MSpaAuux-3">
          <mxGeometry relative="1" as="geometry" />
        </mxCell>
        <mxCell id="382b91b5511bd0f7-6" value="1&lt;br&gt;Standby" style="rounded=1;whiteSpace=wrap;html=1;arcSize=24;fillColor=#ffffc0;strokeColor=#ff0000;shadow=0;comic=0;labelBackgroundColor=none;fontFamily=Verdana;fontSize=12;fontColor=#000000;align=center;" parent="1" vertex="1">
          <mxGeometry x="110" y="130" width="120" height="60" as="geometry" />
        </mxCell>
        <mxCell id="8N6I14WKacHsOnJNkDoR-79" value="Avançou&lt;br&gt;mesa" style="edgeStyle=orthogonalEdgeStyle;rounded=0;orthogonalLoop=1;jettySize=auto;html=1;exitX=1;exitY=0.5;exitDx=0;exitDy=0;entryX=0;entryY=0.5;entryDx=0;entryDy=0;" parent="1" source="382b91b5511bd0f7-7" target="8N6I14WKacHsOnJNkDoR-22" edge="1">
          <mxGeometry relative="1" as="geometry" />
        </mxCell>
        <mxCell id="382b91b5511bd0f7-7" value="2&lt;br&gt;Avançando mesa" style="rounded=1;whiteSpace=wrap;html=1;arcSize=24;fillColor=#ffffc0;strokeColor=#ff0000;shadow=0;comic=0;labelBackgroundColor=none;fontFamily=Verdana;fontSize=12;fontColor=#000000;align=center;" parent="1" vertex="1">
          <mxGeometry x="399" y="130" width="120" height="60" as="geometry" />
        </mxCell>
        <mxCell id="8N6I14WKacHsOnJNkDoR-28" style="edgeStyle=orthogonalEdgeStyle;rounded=0;orthogonalLoop=1;jettySize=auto;html=1;exitX=1;exitY=0.5;exitDx=0;exitDy=0;" parent="1" source="8N6I14WKacHsOnJNkDoR-22" target="8N6I14WKacHsOnJNkDoR-27" edge="1">
          <mxGeometry relative="1" as="geometry" />
        </mxCell>
        <mxCell id="8N6I14WKacHsOnJNkDoR-31" value="Tem&amp;nbsp; pacote" style="edgeLabel;html=1;align=center;verticalAlign=middle;resizable=0;points=[];" parent="8N6I14WKacHsOnJNkDoR-28" vertex="1" connectable="0">
          <mxGeometry x="0.2143" y="-2" relative="1" as="geometry">
            <mxPoint x="-1" as="offset" />
          </mxGeometry>
        </mxCell>
        <mxCell id="8N6I14WKacHsOnJNkDoR-45" value="Não tem pacote" style="edgeStyle=orthogonalEdgeStyle;rounded=0;orthogonalLoop=1;jettySize=auto;html=1;exitX=0.5;exitY=1;exitDx=0;exitDy=0;entryX=0.5;entryY=0;entryDx=0;entryDy=0;" parent="1" source="8N6I14WKacHsOnJNkDoR-22" target="8N6I14WKacHsOnJNkDoR-41" edge="1">
          <mxGeometry relative="1" as="geometry" />
        </mxCell>
        <mxCell id="8N6I14WKacHsOnJNkDoR-22" value="Verifica&lt;br&gt;pacote no&amp;nbsp;&lt;br&gt;extrator" style="rhombus;whiteSpace=wrap;html=1;" parent="1" vertex="1">
          <mxGeometry x="640" y="120" width="80" height="80" as="geometry" />
        </mxCell>
        <mxCell id="8N6I14WKacHsOnJNkDoR-47" value="Expulsador recuado&amp;nbsp;&lt;br&gt;e&lt;br&gt;bandeja aberta" style="edgeStyle=orthogonalEdgeStyle;rounded=0;orthogonalLoop=1;jettySize=auto;html=1;exitX=1;exitY=0.5;exitDx=0;exitDy=0;entryX=0.5;entryY=0;entryDx=0;entryDy=0;" parent="1" source="8N6I14WKacHsOnJNkDoR-27" target="8N6I14WKacHsOnJNkDoR-46" edge="1">
          <mxGeometry relative="1" as="geometry" />
        </mxCell>
        <mxCell id="8N6I14WKacHsOnJNkDoR-27" value="3&lt;br&gt;Aguardando&lt;br&gt;para subir para&lt;br&gt;esteira" style="rounded=1;whiteSpace=wrap;html=1;arcSize=24;fillColor=#ffffc0;strokeColor=#ff0000;shadow=0;comic=0;labelBackgroundColor=none;fontFamily=Verdana;fontSize=12;fontColor=#000000;align=center;" parent="1" vertex="1">
          <mxGeometry x="820" y="130" width="120" height="60" as="geometry" />
        </mxCell>
        <mxCell id="8N6I14WKacHsOnJNkDoR-61" value="Recebeu&lt;br&gt;permissão" style="edgeStyle=orthogonalEdgeStyle;rounded=0;orthogonalLoop=1;jettySize=auto;html=1;" parent="1" source="8N6I14WKacHsOnJNkDoR-41" target="8N6I14WKacHsOnJNkDoR-60" edge="1">
          <mxGeometry relative="1" as="geometry" />
        </mxCell>
        <mxCell id="8N6I14WKacHsOnJNkDoR-41" value="7&lt;br&gt;Aguardando&lt;br&gt;para recuar a mesa" style="rounded=1;whiteSpace=wrap;html=1;arcSize=24;fillColor=#ffffc0;strokeColor=#ff0000;shadow=0;comic=0;labelBackgroundColor=none;fontFamily=Verdana;fontSize=12;fontColor=#000000;align=center;" parent="1" vertex="1">
          <mxGeometry x="620" y="250" width="120" height="60" as="geometry" />
        </mxCell>
        <mxCell id="8N6I14WKacHsOnJNkDoR-49" value="Subiu extrator" style="edgeStyle=orthogonalEdgeStyle;rounded=0;orthogonalLoop=1;jettySize=auto;html=1;" parent="1" source="8N6I14WKacHsOnJNkDoR-46" target="8N6I14WKacHsOnJNkDoR-48" edge="1">
          <mxGeometry relative="1" as="geometry" />
        </mxCell>
        <mxCell id="8N6I14WKacHsOnJNkDoR-46" value="4&lt;br&gt;Subindo extrator para a esteira" style="rounded=1;whiteSpace=wrap;html=1;arcSize=24;fillColor=#ffffc0;strokeColor=#ff0000;shadow=0;comic=0;labelBackgroundColor=none;fontFamily=Verdana;fontSize=12;fontColor=#000000;align=center;" parent="1" vertex="1">
          <mxGeometry x="960" y="220" width="120" height="60" as="geometry" />
        </mxCell>
        <mxCell id="8N6I14WKacHsOnJNkDoR-52" value="Fechou&lt;br&gt;bandeja" style="edgeStyle=orthogonalEdgeStyle;rounded=0;orthogonalLoop=1;jettySize=auto;html=1;entryX=1;entryY=0.5;entryDx=0;entryDy=0;" parent="1" source="8N6I14WKacHsOnJNkDoR-48" target="8N6I14WKacHsOnJNkDoR-50" edge="1">
          <mxGeometry relative="1" as="geometry" />
        </mxCell>
        <mxCell id="8N6I14WKacHsOnJNkDoR-48" value="5&lt;br&gt;Aguarda fechar&lt;br&gt;a bandeja" style="rounded=1;whiteSpace=wrap;html=1;arcSize=24;fillColor=#ffffc0;strokeColor=#ff0000;shadow=0;comic=0;labelBackgroundColor=none;fontFamily=Verdana;fontSize=12;fontColor=#000000;align=center;" parent="1" vertex="1">
          <mxGeometry x="960" y="360" width="120" height="60" as="geometry" />
        </mxCell>
        <mxCell id="8N6I14WKacHsOnJNkDoR-58" value="&#xa;&lt;span style=&quot;color: rgb(0, 0, 0); font-family: Helvetica; font-size: 11px; font-style: normal; font-variant-ligatures: normal; font-variant-caps: normal; font-weight: 400; letter-spacing: normal; orphans: 2; text-align: center; text-indent: 0px; text-transform: none; widows: 2; word-spacing: 0px; -webkit-text-stroke-width: 0px; background-color: rgb(255, 255, 255); text-decoration-thickness: initial; text-decoration-style: initial; text-decoration-color: initial; float: none; display: inline !important;&quot;&gt;Desceu&lt;/span&gt;&lt;br style=&quot;color: rgb(0, 0, 0); font-family: Helvetica; font-size: 11px; font-style: normal; font-variant-ligatures: normal; font-variant-caps: normal; font-weight: 400; letter-spacing: normal; orphans: 2; text-align: center; text-indent: 0px; text-transform: none; widows: 2; word-spacing: 0px; -webkit-text-stroke-width: 0px; text-decoration-thickness: initial; text-decoration-style: initial; text-decoration-color: initial;&quot;&gt;&lt;span style=&quot;color: rgb(0, 0, 0); font-family: Helvetica; font-size: 11px; font-style: normal; font-variant-ligatures: normal; font-variant-caps: normal; font-weight: 400; letter-spacing: normal; orphans: 2; text-align: center; text-indent: 0px; text-transform: none; widows: 2; word-spacing: 0px; -webkit-text-stroke-width: 0px; background-color: rgb(255, 255, 255); text-decoration-thickness: initial; text-decoration-style: initial; text-decoration-color: initial; float: none; display: inline !important;&quot;&gt;extrator&lt;/span&gt;&#xa;&#xa;" style="edgeStyle=orthogonalEdgeStyle;rounded=0;orthogonalLoop=1;jettySize=auto;html=1;" parent="1" source="8N6I14WKacHsOnJNkDoR-50" target="8N6I14WKacHsOnJNkDoR-57" edge="1">
          <mxGeometry relative="1" as="geometry" />
        </mxCell>
        <mxCell id="8N6I14WKacHsOnJNkDoR-50" value="6&lt;br&gt;Descendo&lt;br&gt;extrator&lt;br&gt;da esteira" style="rounded=1;whiteSpace=wrap;html=1;arcSize=24;fillColor=#ffffc0;strokeColor=#ff0000;shadow=0;comic=0;labelBackgroundColor=none;fontFamily=Verdana;fontSize=12;fontColor=#000000;align=center;" parent="1" vertex="1">
          <mxGeometry x="753" y="360" width="120" height="60" as="geometry" />
        </mxCell>
        <mxCell id="8N6I14WKacHsOnJNkDoR-54" value="Vertical Container" style="swimlane;rounded=1;" parent="1" vertex="1">
          <mxGeometry x="840" y="750" width="200" height="200" as="geometry" />
        </mxCell>
        <mxCell id="8N6I14WKacHsOnJNkDoR-59" value="Transferiu pacote" style="edgeStyle=orthogonalEdgeStyle;rounded=0;orthogonalLoop=1;jettySize=auto;html=1;" parent="1" source="8N6I14WKacHsOnJNkDoR-57" target="8N6I14WKacHsOnJNkDoR-41" edge="1">
          <mxGeometry relative="1" as="geometry" />
        </mxCell>
        <mxCell id="8N6I14WKacHsOnJNkDoR-57" value="Set pacote na bandeja,&lt;br&gt;reset pacote no&amp;nbsp;&lt;br&gt;extrator" style="rounded=1;whiteSpace=wrap;html=1;arcSize=24;fillColor=#ffffc0;strokeColor=#ff0000;shadow=0;comic=0;labelBackgroundColor=none;fontFamily=Verdana;fontSize=12;fontColor=#000000;align=center;" parent="1" vertex="1">
          <mxGeometry x="550" y="360" width="120" height="60" as="geometry" />
        </mxCell>
        <mxCell id="8N6I14WKacHsOnJNkDoR-64" value="Recuou&lt;br&gt;mesa" style="edgeStyle=orthogonalEdgeStyle;rounded=0;orthogonalLoop=1;jettySize=auto;html=1;" parent="1" source="8N6I14WKacHsOnJNkDoR-60" target="8N6I14WKacHsOnJNkDoR-63" edge="1">
          <mxGeometry relative="1" as="geometry" />
        </mxCell>
        <mxCell id="8N6I14WKacHsOnJNkDoR-60" value="8&lt;br&gt;Recuando mesa" style="rounded=1;whiteSpace=wrap;html=1;arcSize=24;fillColor=#ffffc0;strokeColor=#ff0000;shadow=0;comic=0;labelBackgroundColor=none;fontFamily=Verdana;fontSize=12;fontColor=#000000;align=center;" parent="1" vertex="1">
          <mxGeometry x="350" y="250" width="120" height="60" as="geometry" />
        </mxCell>
        <mxCell id="8N6I14WKacHsOnJNkDoR-66" value="Tem pacote" style="edgeStyle=orthogonalEdgeStyle;rounded=0;orthogonalLoop=1;jettySize=auto;html=1;" parent="1" source="8N6I14WKacHsOnJNkDoR-63" target="8N6I14WKacHsOnJNkDoR-65" edge="1">
          <mxGeometry relative="1" as="geometry" />
        </mxCell>
        <mxCell id="8N6I14WKacHsOnJNkDoR-67" value="Não tem pacote" style="edgeStyle=orthogonalEdgeStyle;rounded=0;orthogonalLoop=1;jettySize=auto;html=1;" parent="1" source="8N6I14WKacHsOnJNkDoR-63" target="382b91b5511bd0f7-6" edge="1">
          <mxGeometry relative="1" as="geometry" />
        </mxCell>
        <mxCell id="8N6I14WKacHsOnJNkDoR-63" value="Verifica&lt;br&gt;pacote na&amp;nbsp;&lt;br&gt;grampeadeira" style="rhombus;whiteSpace=wrap;html=1;" parent="1" vertex="1">
          <mxGeometry x="130" y="240" width="80" height="80" as="geometry" />
        </mxCell>
        <mxCell id="8N6I14WKacHsOnJNkDoR-69" value="Grampeadeira em&lt;br&gt;posição" style="edgeStyle=orthogonalEdgeStyle;rounded=0;orthogonalLoop=1;jettySize=auto;html=1;" parent="1" source="8N6I14WKacHsOnJNkDoR-65" target="8N6I14WKacHsOnJNkDoR-68" edge="1">
          <mxGeometry relative="1" as="geometry" />
        </mxCell>
        <mxCell id="8N6I14WKacHsOnJNkDoR-65" value="9&lt;br&gt;Aguarda permissão&lt;br&gt;para subir extrator" style="rounded=1;whiteSpace=wrap;html=1;arcSize=24;fillColor=#ffffc0;strokeColor=#ff0000;shadow=0;comic=0;labelBackgroundColor=none;fontFamily=Verdana;fontSize=12;fontColor=#000000;align=center;" parent="1" vertex="1">
          <mxGeometry x="110" y="370" width="120" height="60" as="geometry" />
        </mxCell>
        <mxCell id="8N6I14WKacHsOnJNkDoR-71" value="Subiu&lt;br&gt;extrator" style="edgeStyle=orthogonalEdgeStyle;rounded=0;orthogonalLoop=1;jettySize=auto;html=1;" parent="1" source="8N6I14WKacHsOnJNkDoR-68" target="8N6I14WKacHsOnJNkDoR-70" edge="1">
          <mxGeometry relative="1" as="geometry" />
        </mxCell>
        <mxCell id="8N6I14WKacHsOnJNkDoR-68" value="10&lt;br&gt;Sobe extrator&amp;nbsp;&lt;br&gt;para coletar" style="rounded=1;whiteSpace=wrap;html=1;arcSize=24;fillColor=#ffffc0;strokeColor=#ff0000;shadow=0;comic=0;labelBackgroundColor=none;fontFamily=Verdana;fontSize=12;fontColor=#000000;align=center;" parent="1" vertex="1">
          <mxGeometry x="110" y="500" width="120" height="60" as="geometry" />
        </mxCell>
        <mxCell id="8N6I14WKacHsOnJNkDoR-73" value="Soltou&amp;nbsp;&lt;br&gt;pacote" style="edgeStyle=orthogonalEdgeStyle;rounded=0;orthogonalLoop=1;jettySize=auto;html=1;" parent="1" source="8N6I14WKacHsOnJNkDoR-70" target="8N6I14WKacHsOnJNkDoR-72" edge="1">
          <mxGeometry relative="1" as="geometry" />
        </mxCell>
        <mxCell id="8N6I14WKacHsOnJNkDoR-70" value="11&lt;br&gt;Aguarda soltar pacote" style="rounded=1;whiteSpace=wrap;html=1;arcSize=24;fillColor=#ffffc0;strokeColor=#ff0000;shadow=0;comic=0;labelBackgroundColor=none;fontFamily=Verdana;fontSize=12;fontColor=#000000;align=center;" parent="1" vertex="1">
          <mxGeometry x="318" y="500" width="120" height="60" as="geometry" />
        </mxCell>
        <mxCell id="8N6I14WKacHsOnJNkDoR-96" value="Desceu&lt;br&gt;extrator" style="edgeStyle=orthogonalEdgeStyle;rounded=0;orthogonalLoop=1;jettySize=auto;html=1;exitX=0.5;exitY=1;exitDx=0;exitDy=0;entryX=0;entryY=0.75;entryDx=0;entryDy=0;" parent="1" source="8N6I14WKacHsOnJNkDoR-72" target="382b91b5511bd0f7-6" edge="1">
          <mxGeometry relative="1" as="geometry">
            <Array as="points">
              <mxPoint x="610" y="590" />
              <mxPoint x="60" y="590" />
              <mxPoint x="60" y="175" />
            </Array>
          </mxGeometry>
        </mxCell>
        <mxCell id="8N6I14WKacHsOnJNkDoR-72" value="12&lt;br&gt;Desce extrator,&lt;br&gt;Set pacote no extrator" style="rounded=1;whiteSpace=wrap;html=1;arcSize=24;fillColor=#ffffc0;strokeColor=#ff0000;shadow=0;comic=0;labelBackgroundColor=none;fontFamily=Verdana;fontSize=12;fontColor=#000000;align=center;" parent="1" vertex="1">
          <mxGeometry x="550" y="500" width="120" height="60" as="geometry" />
        </mxCell>
        <mxCell id="-9OwRvuo03_8MSpaAuux-6" style="edgeStyle=orthogonalEdgeStyle;rounded=0;orthogonalLoop=1;jettySize=auto;html=1;exitX=1;exitY=0.5;exitDx=0;exitDy=0;entryX=0.75;entryY=0;entryDx=0;entryDy=0;" edge="1" parent="1" source="-9OwRvuo03_8MSpaAuux-1" target="382b91b5511bd0f7-6">
          <mxGeometry relative="1" as="geometry" />
        </mxCell>
        <mxCell id="-9OwRvuo03_8MSpaAuux-1" value="Mostra mensagem de ciclo finalizado" style="rounded=1;whiteSpace=wrap;html=1;arcSize=24;fillColor=#ffffc0;strokeColor=#ff0000;shadow=0;comic=0;labelBackgroundColor=none;fontFamily=Verdana;fontSize=12;fontColor=#000000;align=center;" vertex="1" parent="1">
          <mxGeometry x="290" y="10" width="120" height="60" as="geometry" />
        </mxCell>
        <mxCell id="-9OwRvuo03_8MSpaAuux-4" value="Sim" style="edgeStyle=orthogonalEdgeStyle;rounded=0;orthogonalLoop=1;jettySize=auto;html=1;exitX=1;exitY=0.5;exitDx=0;exitDy=0;" edge="1" parent="1" source="-9OwRvuo03_8MSpaAuux-3" target="-9OwRvuo03_8MSpaAuux-1">
          <mxGeometry relative="1" as="geometry" />
        </mxCell>
        <mxCell id="-9OwRvuo03_8MSpaAuux-7" value="Não" style="edgeStyle=orthogonalEdgeStyle;rounded=0;orthogonalLoop=1;jettySize=auto;html=1;exitX=0;exitY=0.5;exitDx=0;exitDy=0;entryX=0.25;entryY=0;entryDx=0;entryDy=0;" edge="1" parent="1" source="-9OwRvuo03_8MSpaAuux-3" target="382b91b5511bd0f7-6">
          <mxGeometry relative="1" as="geometry" />
        </mxCell>
        <mxCell id="-9OwRvuo03_8MSpaAuux-3" value="Contagem&amp;nbsp;&lt;br&gt;pçs&lt;br&gt;atingida" style="rhombus;whiteSpace=wrap;html=1;" vertex="1" parent="1">
          <mxGeometry x="130" width="80" height="80" as="geometry" />
        </mxCell>
      </root>
    </mxGraphModel>
  </diagram>
</mxfile>
